<?xml version="1.0" encoding="UTF-8" standalone="yes" ?>
<svg xmlns="http://www.w3.org/2000/svg" xmlns:xlink="http://www.w3.org/1999/xlink"
   version="1.1" baseProfile="full"
   width="46mm" height="46mm"
   viewBox="0 0 100 100">

   <rect style="fill:rgb(255, 255, 255);fill-opacity:1" x="0" y="0" width="100" height="100"/>

   <svg viewBox="0 0 49 49">
      <g id="elements">
         <path style="fill:rgb(0, 0, 0)" d="M 0,0 l 1,0 0,1 -1,0 z M 1,0 l 1,0 0,1 -1,0 z M 2,0 l 1,0 0,1 -1,0 z M 3,0 l 1,0 0,1 -1,0 z 
            M 4,0 l 1,0 0,1 -1,0 z M 5,0 l 1,0 0,1 -1,0 z M 6,0 l 1,0 0,1 -1,0 z M 10,0 l 1,0 0,1 -1,0 z M 11,0 l 1,0 0,1 -1,0 z 
            M 14,0 l 1,0 0,1 -1,0 z M 15,0 l 1,0 0,1 -1,0 z M 16,0 l 1,0 0,1 -1,0 z M 18,0 l 1,0 0,1 -1,0 z M 19,0 l 1,0 0,1 -1,0 z 
            M 21,0 l 1,0 0,1 -1,0 z M 22,0 l 1,0 0,1 -1,0 z M 23,0 l 1,0 0,1 -1,0 z M 28,0 l 1,0 0,1 -1,0 z M 29,0 l 1,0 0,1 -1,0 z 
            M 32,0 l 1,0 0,1 -1,0 z M 33,0 l 1,0 0,1 -1,0 z M 36,0 l 1,0 0,1 -1,0 z M 37,0 l 1,0 0,1 -1,0 z M 40,0 l 1,0 0,1 -1,0 z 
            M 42,0 l 1,0 0,1 -1,0 z M 43,0 l 1,0 0,1 -1,0 z M 44,0 l 1,0 0,1 -1,0 z M 45,0 l 1,0 0,1 -1,0 z M 46,0 l 1,0 0,1 -1,0 z 
            M 47,0 l 1,0 0,1 -1,0 z M 48,0 l 1,0 0,1 -1,0 z M 0,1 l 1,0 0,1 -1,0 z M 6,1 l 1,0 0,1 -1,0 z M 8,1 l 1,0 0,1 -1,0 z 
            M 10,1 l 1,0 0,1 -1,0 z M 16,1 l 1,0 0,1 -1,0 z M 19,1 l 1,0 0,1 -1,0 z M 20,1 l 1,0 0,1 -1,0 z M 23,1 l 1,0 0,1 -1,0 z 
            M 25,1 l 1,0 0,1 -1,0 z M 26,1 l 1,0 0,1 -1,0 z M 27,1 l 1,0 0,1 -1,0 z M 31,1 l 1,0 0,1 -1,0 z M 35,1 l 1,0 0,1 -1,0 z 
            M 38,1 l 1,0 0,1 -1,0 z M 39,1 l 1,0 0,1 -1,0 z M 40,1 l 1,0 0,1 -1,0 z M 42,1 l 1,0 0,1 -1,0 z M 48,1 l 1,0 0,1 -1,0 z 
            M 0,2 l 1,0 0,1 -1,0 z M 2,2 l 1,0 0,1 -1,0 z M 3,2 l 1,0 0,1 -1,0 z M 4,2 l 1,0 0,1 -1,0 z M 6,2 l 1,0 0,1 -1,0 z 
            M 9,2 l 1,0 0,1 -1,0 z M 10,2 l 1,0 0,1 -1,0 z M 12,2 l 1,0 0,1 -1,0 z M 13,2 l 1,0 0,1 -1,0 z M 20,2 l 1,0 0,1 -1,0 z 
            M 21,2 l 1,0 0,1 -1,0 z M 22,2 l 1,0 0,1 -1,0 z M 26,2 l 1,0 0,1 -1,0 z M 27,2 l 1,0 0,1 -1,0 z M 28,2 l 1,0 0,1 -1,0 z 
            M 30,2 l 1,0 0,1 -1,0 z M 31,2 l 1,0 0,1 -1,0 z M 32,2 l 1,0 0,1 -1,0 z M 33,2 l 1,0 0,1 -1,0 z M 34,2 l 1,0 0,1 -1,0 z 
            M 39,2 l 1,0 0,1 -1,0 z M 40,2 l 1,0 0,1 -1,0 z M 42,2 l 1,0 0,1 -1,0 z M 44,2 l 1,0 0,1 -1,0 z M 45,2 l 1,0 0,1 -1,0 z 
            M 46,2 l 1,0 0,1 -1,0 z M 48,2 l 1,0 0,1 -1,0 z M 0,3 l 1,0 0,1 -1,0 z M 2,3 l 1,0 0,1 -1,0 z M 3,3 l 1,0 0,1 -1,0 z 
            M 4,3 l 1,0 0,1 -1,0 z M 6,3 l 1,0 0,1 -1,0 z M 10,3 l 1,0 0,1 -1,0 z M 11,3 l 1,0 0,1 -1,0 z M 12,3 l 1,0 0,1 -1,0 z 
            M 17,3 l 1,0 0,1 -1,0 z M 22,3 l 1,0 0,1 -1,0 z M 23,3 l 1,0 0,1 -1,0 z M 24,3 l 1,0 0,1 -1,0 z M 26,3 l 1,0 0,1 -1,0 z 
            M 28,3 l 1,0 0,1 -1,0 z M 30,3 l 1,0 0,1 -1,0 z M 32,3 l 1,0 0,1 -1,0 z M 33,3 l 1,0 0,1 -1,0 z M 36,3 l 1,0 0,1 -1,0 z 
            M 37,3 l 1,0 0,1 -1,0 z M 39,3 l 1,0 0,1 -1,0 z M 42,3 l 1,0 0,1 -1,0 z M 44,3 l 1,0 0,1 -1,0 z M 45,3 l 1,0 0,1 -1,0 z 
            M 46,3 l 1,0 0,1 -1,0 z M 48,3 l 1,0 0,1 -1,0 z M 0,4 l 1,0 0,1 -1,0 z M 2,4 l 1,0 0,1 -1,0 z M 3,4 l 1,0 0,1 -1,0 z 
            M 4,4 l 1,0 0,1 -1,0 z M 6,4 l 1,0 0,1 -1,0 z M 8,4 l 1,0 0,1 -1,0 z M 10,4 l 1,0 0,1 -1,0 z M 11,4 l 1,0 0,1 -1,0 z 
            M 14,4 l 1,0 0,1 -1,0 z M 16,4 l 1,0 0,1 -1,0 z M 20,4 l 1,0 0,1 -1,0 z M 22,4 l 1,0 0,1 -1,0 z M 23,4 l 1,0 0,1 -1,0 z 
            M 24,4 l 1,0 0,1 -1,0 z M 25,4 l 1,0 0,1 -1,0 z M 26,4 l 1,0 0,1 -1,0 z M 28,4 l 1,0 0,1 -1,0 z M 29,4 l 1,0 0,1 -1,0 z 
            M 30,4 l 1,0 0,1 -1,0 z M 32,4 l 1,0 0,1 -1,0 z M 34,4 l 1,0 0,1 -1,0 z M 42,4 l 1,0 0,1 -1,0 z M 44,4 l 1,0 0,1 -1,0 z 
            M 45,4 l 1,0 0,1 -1,0 z M 46,4 l 1,0 0,1 -1,0 z M 48,4 l 1,0 0,1 -1,0 z M 0,5 l 1,0 0,1 -1,0 z M 6,5 l 1,0 0,1 -1,0 z 
            M 11,5 l 1,0 0,1 -1,0 z M 15,5 l 1,0 0,1 -1,0 z M 16,5 l 1,0 0,1 -1,0 z M 21,5 l 1,0 0,1 -1,0 z M 22,5 l 1,0 0,1 -1,0 z 
            M 26,5 l 1,0 0,1 -1,0 z M 27,5 l 1,0 0,1 -1,0 z M 30,5 l 1,0 0,1 -1,0 z M 31,5 l 1,0 0,1 -1,0 z M 34,5 l 1,0 0,1 -1,0 z 
            M 37,5 l 1,0 0,1 -1,0 z M 38,5 l 1,0 0,1 -1,0 z M 42,5 l 1,0 0,1 -1,0 z M 48,5 l 1,0 0,1 -1,0 z M 0,6 l 1,0 0,1 -1,0 z 
            M 1,6 l 1,0 0,1 -1,0 z M 2,6 l 1,0 0,1 -1,0 z M 3,6 l 1,0 0,1 -1,0 z M 4,6 l 1,0 0,1 -1,0 z M 5,6 l 1,0 0,1 -1,0 z 
            M 6,6 l 1,0 0,1 -1,0 z M 8,6 l 1,0 0,1 -1,0 z M 10,6 l 1,0 0,1 -1,0 z M 12,6 l 1,0 0,1 -1,0 z M 14,6 l 1,0 0,1 -1,0 z 
            M 16,6 l 1,0 0,1 -1,0 z M 18,6 l 1,0 0,1 -1,0 z M 20,6 l 1,0 0,1 -1,0 z M 22,6 l 1,0 0,1 -1,0 z M 24,6 l 1,0 0,1 -1,0 z 
            M 26,6 l 1,0 0,1 -1,0 z M 28,6 l 1,0 0,1 -1,0 z M 30,6 l 1,0 0,1 -1,0 z M 32,6 l 1,0 0,1 -1,0 z M 34,6 l 1,0 0,1 -1,0 z 
            M 36,6 l 1,0 0,1 -1,0 z M 38,6 l 1,0 0,1 -1,0 z M 40,6 l 1,0 0,1 -1,0 z M 42,6 l 1,0 0,1 -1,0 z M 43,6 l 1,0 0,1 -1,0 z 
            M 44,6 l 1,0 0,1 -1,0 z M 45,6 l 1,0 0,1 -1,0 z M 46,6 l 1,0 0,1 -1,0 z M 47,6 l 1,0 0,1 -1,0 z M 48,6 l 1,0 0,1 -1,0 z 
            M 10,7 l 1,0 0,1 -1,0 z M 14,7 l 1,0 0,1 -1,0 z M 15,7 l 1,0 0,1 -1,0 z M 17,7 l 1,0 0,1 -1,0 z M 19,7 l 1,0 0,1 -1,0 z 
            M 22,7 l 1,0 0,1 -1,0 z M 26,7 l 1,0 0,1 -1,0 z M 28,7 l 1,0 0,1 -1,0 z M 30,7 l 1,0 0,1 -1,0 z M 31,7 l 1,0 0,1 -1,0 z 
            M 36,7 l 1,0 0,1 -1,0 z M 39,7 l 1,0 0,1 -1,0 z M 0,8 l 1,0 0,1 -1,0 z M 2,8 l 1,0 0,1 -1,0 z M 4,8 l 1,0 0,1 -1,0 z 
            M 6,8 l 1,0 0,1 -1,0 z M 11,8 l 1,0 0,1 -1,0 z M 12,8 l 1,0 0,1 -1,0 z M 15,8 l 1,0 0,1 -1,0 z M 16,8 l 1,0 0,1 -1,0 z 
            M 17,8 l 1,0 0,1 -1,0 z M 18,8 l 1,0 0,1 -1,0 z M 19,8 l 1,0 0,1 -1,0 z M 20,8 l 1,0 0,1 -1,0 z M 22,8 l 1,0 0,1 -1,0 z 
            M 23,8 l 1,0 0,1 -1,0 z M 24,8 l 1,0 0,1 -1,0 z M 25,8 l 1,0 0,1 -1,0 z M 26,8 l 1,0 0,1 -1,0 z M 30,8 l 1,0 0,1 -1,0 z 
            M 31,8 l 1,0 0,1 -1,0 z M 32,8 l 1,0 0,1 -1,0 z M 36,8 l 1,0 0,1 -1,0 z M 37,8 l 1,0 0,1 -1,0 z M 39,8 l 1,0 0,1 -1,0 z 
            M 40,8 l 1,0 0,1 -1,0 z M 44,8 l 1,0 0,1 -1,0 z M 47,8 l 1,0 0,1 -1,0 z M 1,9 l 1,0 0,1 -1,0 z M 4,9 l 1,0 0,1 -1,0 z 
            M 5,9 l 1,0 0,1 -1,0 z M 7,9 l 1,0 0,1 -1,0 z M 10,9 l 1,0 0,1 -1,0 z M 11,9 l 1,0 0,1 -1,0 z M 12,9 l 1,0 0,1 -1,0 z 
            M 13,9 l 1,0 0,1 -1,0 z M 14,9 l 1,0 0,1 -1,0 z M 18,9 l 1,0 0,1 -1,0 z M 20,9 l 1,0 0,1 -1,0 z M 21,9 l 1,0 0,1 -1,0 z 
            M 23,9 l 1,0 0,1 -1,0 z M 25,9 l 1,0 0,1 -1,0 z M 26,9 l 1,0 0,1 -1,0 z M 27,9 l 1,0 0,1 -1,0 z M 28,9 l 1,0 0,1 -1,0 z 
            M 29,9 l 1,0 0,1 -1,0 z M 31,9 l 1,0 0,1 -1,0 z M 33,9 l 1,0 0,1 -1,0 z M 34,9 l 1,0 0,1 -1,0 z M 35,9 l 1,0 0,1 -1,0 z 
            M 36,9 l 1,0 0,1 -1,0 z M 40,9 l 1,0 0,1 -1,0 z M 41,9 l 1,0 0,1 -1,0 z M 42,9 l 1,0 0,1 -1,0 z M 43,9 l 1,0 0,1 -1,0 z 
            M 45,9 l 1,0 0,1 -1,0 z M 48,9 l 1,0 0,1 -1,0 z M 0,10 l 1,0 0,1 -1,0 z M 1,10 l 1,0 0,1 -1,0 z M 2,10 l 1,0 0,1 -1,0 z 
            M 3,10 l 1,0 0,1 -1,0 z M 4,10 l 1,0 0,1 -1,0 z M 6,10 l 1,0 0,1 -1,0 z M 11,10 l 1,0 0,1 -1,0 z M 12,10 l 1,0 0,1 -1,0 z 
            M 17,10 l 1,0 0,1 -1,0 z M 20,10 l 1,0 0,1 -1,0 z M 22,10 l 1,0 0,1 -1,0 z M 24,10 l 1,0 0,1 -1,0 z M 25,10 l 1,0 0,1 -1,0 z 
            M 26,10 l 1,0 0,1 -1,0 z M 27,10 l 1,0 0,1 -1,0 z M 28,10 l 1,0 0,1 -1,0 z M 29,10 l 1,0 0,1 -1,0 z M 31,10 l 1,0 0,1 -1,0 z 
            M 32,10 l 1,0 0,1 -1,0 z M 34,10 l 1,0 0,1 -1,0 z M 35,10 l 1,0 0,1 -1,0 z M 36,10 l 1,0 0,1 -1,0 z M 37,10 l 1,0 0,1 -1,0 z 
            M 38,10 l 1,0 0,1 -1,0 z M 40,10 l 1,0 0,1 -1,0 z M 42,10 l 1,0 0,1 -1,0 z M 43,10 l 1,0 0,1 -1,0 z M 44,10 l 1,0 0,1 -1,0 z 
            M 45,10 l 1,0 0,1 -1,0 z M 48,10 l 1,0 0,1 -1,0 z M 0,11 l 1,0 0,1 -1,0 z M 1,11 l 1,0 0,1 -1,0 z M 2,11 l 1,0 0,1 -1,0 z 
            M 3,11 l 1,0 0,1 -1,0 z M 5,11 l 1,0 0,1 -1,0 z M 7,11 l 1,0 0,1 -1,0 z M 8,11 l 1,0 0,1 -1,0 z M 10,11 l 1,0 0,1 -1,0 z 
            M 12,11 l 1,0 0,1 -1,0 z M 14,11 l 1,0 0,1 -1,0 z M 19,11 l 1,0 0,1 -1,0 z M 21,11 l 1,0 0,1 -1,0 z M 22,11 l 1,0 0,1 -1,0 z 
            M 27,11 l 1,0 0,1 -1,0 z M 29,11 l 1,0 0,1 -1,0 z M 31,11 l 1,0 0,1 -1,0 z M 35,11 l 1,0 0,1 -1,0 z M 36,11 l 1,0 0,1 -1,0 z 
            M 37,11 l 1,0 0,1 -1,0 z M 39,11 l 1,0 0,1 -1,0 z M 41,11 l 1,0 0,1 -1,0 z M 43,11 l 1,0 0,1 -1,0 z M 0,12 l 1,0 0,1 -1,0 z 
            M 3,12 l 1,0 0,1 -1,0 z M 6,12 l 1,0 0,1 -1,0 z M 7,12 l 1,0 0,1 -1,0 z M 8,12 l 1,0 0,1 -1,0 z M 9,12 l 1,0 0,1 -1,0 z 
            M 10,12 l 1,0 0,1 -1,0 z M 11,12 l 1,0 0,1 -1,0 z M 17,12 l 1,0 0,1 -1,0 z M 18,12 l 1,0 0,1 -1,0 z M 20,12 l 1,0 0,1 -1,0 z 
            M 23,12 l 1,0 0,1 -1,0 z M 27,12 l 1,0 0,1 -1,0 z M 28,12 l 1,0 0,1 -1,0 z M 30,12 l 1,0 0,1 -1,0 z M 32,12 l 1,0 0,1 -1,0 z 
            M 33,12 l 1,0 0,1 -1,0 z M 38,12 l 1,0 0,1 -1,0 z M 39,12 l 1,0 0,1 -1,0 z M 40,12 l 1,0 0,1 -1,0 z M 42,12 l 1,0 0,1 -1,0 z 
            M 45,12 l 1,0 0,1 -1,0 z M 46,12 l 1,0 0,1 -1,0 z M 47,12 l 1,0 0,1 -1,0 z M 48,12 l 1,0 0,1 -1,0 z M 2,13 l 1,0 0,1 -1,0 z 
            M 3,13 l 1,0 0,1 -1,0 z M 4,13 l 1,0 0,1 -1,0 z M 5,13 l 1,0 0,1 -1,0 z M 7,13 l 1,0 0,1 -1,0 z M 8,13 l 1,0 0,1 -1,0 z 
            M 9,13 l 1,0 0,1 -1,0 z M 11,13 l 1,0 0,1 -1,0 z M 13,13 l 1,0 0,1 -1,0 z M 14,13 l 1,0 0,1 -1,0 z M 16,13 l 1,0 0,1 -1,0 z 
            M 17,13 l 1,0 0,1 -1,0 z M 20,13 l 1,0 0,1 -1,0 z M 23,13 l 1,0 0,1 -1,0 z M 28,13 l 1,0 0,1 -1,0 z M 29,13 l 1,0 0,1 -1,0 z 
            M 30,13 l 1,0 0,1 -1,0 z M 32,13 l 1,0 0,1 -1,0 z M 33,13 l 1,0 0,1 -1,0 z M 35,13 l 1,0 0,1 -1,0 z M 37,13 l 1,0 0,1 -1,0 z 
            M 38,13 l 1,0 0,1 -1,0 z M 40,13 l 1,0 0,1 -1,0 z M 41,13 l 1,0 0,1 -1,0 z M 42,13 l 1,0 0,1 -1,0 z M 44,13 l 1,0 0,1 -1,0 z 
            M 45,13 l 1,0 0,1 -1,0 z M 47,13 l 1,0 0,1 -1,0 z M 0,14 l 1,0 0,1 -1,0 z M 4,14 l 1,0 0,1 -1,0 z M 5,14 l 1,0 0,1 -1,0 z 
            M 6,14 l 1,0 0,1 -1,0 z M 7,14 l 1,0 0,1 -1,0 z M 12,14 l 1,0 0,1 -1,0 z M 13,14 l 1,0 0,1 -1,0 z M 16,14 l 1,0 0,1 -1,0 z 
            M 17,14 l 1,0 0,1 -1,0 z M 18,14 l 1,0 0,1 -1,0 z M 22,14 l 1,0 0,1 -1,0 z M 24,14 l 1,0 0,1 -1,0 z M 25,14 l 1,0 0,1 -1,0 z 
            M 26,14 l 1,0 0,1 -1,0 z M 28,14 l 1,0 0,1 -1,0 z M 32,14 l 1,0 0,1 -1,0 z M 33,14 l 1,0 0,1 -1,0 z M 36,14 l 1,0 0,1 -1,0 z 
            M 40,14 l 1,0 0,1 -1,0 z M 44,14 l 1,0 0,1 -1,0 z M 46,14 l 1,0 0,1 -1,0 z M 47,14 l 1,0 0,1 -1,0 z M 48,14 l 1,0 0,1 -1,0 z 
            M 0,15 l 1,0 0,1 -1,0 z M 2,15 l 1,0 0,1 -1,0 z M 5,15 l 1,0 0,1 -1,0 z M 8,15 l 1,0 0,1 -1,0 z M 9,15 l 1,0 0,1 -1,0 z 
            M 10,15 l 1,0 0,1 -1,0 z M 11,15 l 1,0 0,1 -1,0 z M 14,15 l 1,0 0,1 -1,0 z M 15,15 l 1,0 0,1 -1,0 z M 16,15 l 1,0 0,1 -1,0 z 
            M 17,15 l 1,0 0,1 -1,0 z M 18,15 l 1,0 0,1 -1,0 z M 20,15 l 1,0 0,1 -1,0 z M 23,15 l 1,0 0,1 -1,0 z M 25,15 l 1,0 0,1 -1,0 z 
            M 29,15 l 1,0 0,1 -1,0 z M 31,15 l 1,0 0,1 -1,0 z M 32,15 l 1,0 0,1 -1,0 z M 33,15 l 1,0 0,1 -1,0 z M 35,15 l 1,0 0,1 -1,0 z 
            M 36,15 l 1,0 0,1 -1,0 z M 37,15 l 1,0 0,1 -1,0 z M 39,15 l 1,0 0,1 -1,0 z M 43,15 l 1,0 0,1 -1,0 z M 45,15 l 1,0 0,1 -1,0 z 
            M 46,15 l 1,0 0,1 -1,0 z M 4,16 l 1,0 0,1 -1,0 z M 6,16 l 1,0 0,1 -1,0 z M 8,16 l 1,0 0,1 -1,0 z M 9,16 l 1,0 0,1 -1,0 z 
            M 10,16 l 1,0 0,1 -1,0 z M 11,16 l 1,0 0,1 -1,0 z M 12,16 l 1,0 0,1 -1,0 z M 17,16 l 1,0 0,1 -1,0 z M 18,16 l 1,0 0,1 -1,0 z 
            M 21,16 l 1,0 0,1 -1,0 z M 22,16 l 1,0 0,1 -1,0 z M 23,16 l 1,0 0,1 -1,0 z M 24,16 l 1,0 0,1 -1,0 z M 26,16 l 1,0 0,1 -1,0 z 
            M 27,16 l 1,0 0,1 -1,0 z M 30,16 l 1,0 0,1 -1,0 z M 34,16 l 1,0 0,1 -1,0 z M 38,16 l 1,0 0,1 -1,0 z M 39,16 l 1,0 0,1 -1,0 z 
            M 43,16 l 1,0 0,1 -1,0 z M 44,16 l 1,0 0,1 -1,0 z M 3,17 l 1,0 0,1 -1,0 z M 4,17 l 1,0 0,1 -1,0 z M 5,17 l 1,0 0,1 -1,0 z 
            M 7,17 l 1,0 0,1 -1,0 z M 8,17 l 1,0 0,1 -1,0 z M 10,17 l 1,0 0,1 -1,0 z M 12,17 l 1,0 0,1 -1,0 z M 17,17 l 1,0 0,1 -1,0 z 
            M 18,17 l 1,0 0,1 -1,0 z M 19,17 l 1,0 0,1 -1,0 z M 20,17 l 1,0 0,1 -1,0 z M 21,17 l 1,0 0,1 -1,0 z M 24,17 l 1,0 0,1 -1,0 z 
            M 25,17 l 1,0 0,1 -1,0 z M 26,17 l 1,0 0,1 -1,0 z M 27,17 l 1,0 0,1 -1,0 z M 29,17 l 1,0 0,1 -1,0 z M 30,17 l 1,0 0,1 -1,0 z 
            M 31,17 l 1,0 0,1 -1,0 z M 33,17 l 1,0 0,1 -1,0 z M 34,17 l 1,0 0,1 -1,0 z M 35,17 l 1,0 0,1 -1,0 z M 37,17 l 1,0 0,1 -1,0 z 
            M 38,17 l 1,0 0,1 -1,0 z M 40,17 l 1,0 0,1 -1,0 z M 41,17 l 1,0 0,1 -1,0 z M 42,17 l 1,0 0,1 -1,0 z M 44,17 l 1,0 0,1 -1,0 z 
            M 1,18 l 1,0 0,1 -1,0 z M 2,18 l 1,0 0,1 -1,0 z M 3,18 l 1,0 0,1 -1,0 z M 5,18 l 1,0 0,1 -1,0 z M 6,18 l 1,0 0,1 -1,0 z 
            M 7,18 l 1,0 0,1 -1,0 z M 8,18 l 1,0 0,1 -1,0 z M 12,18 l 1,0 0,1 -1,0 z M 13,18 l 1,0 0,1 -1,0 z M 14,18 l 1,0 0,1 -1,0 z 
            M 16,18 l 1,0 0,1 -1,0 z M 17,18 l 1,0 0,1 -1,0 z M 18,18 l 1,0 0,1 -1,0 z M 20,18 l 1,0 0,1 -1,0 z M 21,18 l 1,0 0,1 -1,0 z 
            M 23,18 l 1,0 0,1 -1,0 z M 24,18 l 1,0 0,1 -1,0 z M 28,18 l 1,0 0,1 -1,0 z M 32,18 l 1,0 0,1 -1,0 z M 36,18 l 1,0 0,1 -1,0 z 
            M 41,18 l 1,0 0,1 -1,0 z M 42,18 l 1,0 0,1 -1,0 z M 43,18 l 1,0 0,1 -1,0 z M 44,18 l 1,0 0,1 -1,0 z M 45,18 l 1,0 0,1 -1,0 z 
            M 46,18 l 1,0 0,1 -1,0 z M 47,18 l 1,0 0,1 -1,0 z M 2,19 l 1,0 0,1 -1,0 z M 3,19 l 1,0 0,1 -1,0 z M 5,19 l 1,0 0,1 -1,0 z 
            M 7,19 l 1,0 0,1 -1,0 z M 8,19 l 1,0 0,1 -1,0 z M 9,19 l 1,0 0,1 -1,0 z M 10,19 l 1,0 0,1 -1,0 z M 12,19 l 1,0 0,1 -1,0 z 
            M 13,19 l 1,0 0,1 -1,0 z M 16,19 l 1,0 0,1 -1,0 z M 17,19 l 1,0 0,1 -1,0 z M 18,19 l 1,0 0,1 -1,0 z M 19,19 l 1,0 0,1 -1,0 z 
            M 24,19 l 1,0 0,1 -1,0 z M 25,19 l 1,0 0,1 -1,0 z M 27,19 l 1,0 0,1 -1,0 z M 28,19 l 1,0 0,1 -1,0 z M 29,19 l 1,0 0,1 -1,0 z 
            M 31,19 l 1,0 0,1 -1,0 z M 32,19 l 1,0 0,1 -1,0 z M 37,19 l 1,0 0,1 -1,0 z M 41,19 l 1,0 0,1 -1,0 z M 45,19 l 1,0 0,1 -1,0 z 
            M 47,19 l 1,0 0,1 -1,0 z M 1,20 l 1,0 0,1 -1,0 z M 2,20 l 1,0 0,1 -1,0 z M 3,20 l 1,0 0,1 -1,0 z M 4,20 l 1,0 0,1 -1,0 z 
            M 6,20 l 1,0 0,1 -1,0 z M 7,20 l 1,0 0,1 -1,0 z M 8,20 l 1,0 0,1 -1,0 z M 9,20 l 1,0 0,1 -1,0 z M 10,20 l 1,0 0,1 -1,0 z 
            M 13,20 l 1,0 0,1 -1,0 z M 15,20 l 1,0 0,1 -1,0 z M 17,20 l 1,0 0,1 -1,0 z M 19,20 l 1,0 0,1 -1,0 z M 20,20 l 1,0 0,1 -1,0 z 
            M 22,20 l 1,0 0,1 -1,0 z M 24,20 l 1,0 0,1 -1,0 z M 26,20 l 1,0 0,1 -1,0 z M 29,20 l 1,0 0,1 -1,0 z M 31,20 l 1,0 0,1 -1,0 z 
            M 32,20 l 1,0 0,1 -1,0 z M 34,20 l 1,0 0,1 -1,0 z M 35,20 l 1,0 0,1 -1,0 z M 36,20 l 1,0 0,1 -1,0 z M 38,20 l 1,0 0,1 -1,0 z 
            M 40,20 l 1,0 0,1 -1,0 z M 41,20 l 1,0 0,1 -1,0 z M 43,20 l 1,0 0,1 -1,0 z M 45,20 l 1,0 0,1 -1,0 z M 48,20 l 1,0 0,1 -1,0 z 
            M 0,21 l 1,0 0,1 -1,0 z M 1,21 l 1,0 0,1 -1,0 z M 8,21 l 1,0 0,1 -1,0 z M 9,21 l 1,0 0,1 -1,0 z M 14,21 l 1,0 0,1 -1,0 z 
            M 18,21 l 1,0 0,1 -1,0 z M 24,21 l 1,0 0,1 -1,0 z M 26,21 l 1,0 0,1 -1,0 z M 27,21 l 1,0 0,1 -1,0 z M 29,21 l 1,0 0,1 -1,0 z 
            M 31,21 l 1,0 0,1 -1,0 z M 32,21 l 1,0 0,1 -1,0 z M 33,21 l 1,0 0,1 -1,0 z M 34,21 l 1,0 0,1 -1,0 z M 35,21 l 1,0 0,1 -1,0 z 
            M 36,21 l 1,0 0,1 -1,0 z M 38,21 l 1,0 0,1 -1,0 z M 39,21 l 1,0 0,1 -1,0 z M 41,21 l 1,0 0,1 -1,0 z M 43,21 l 1,0 0,1 -1,0 z 
            M 45,21 l 1,0 0,1 -1,0 z M 47,21 l 1,0 0,1 -1,0 z M 48,21 l 1,0 0,1 -1,0 z M 0,22 l 1,0 0,1 -1,0 z M 1,22 l 1,0 0,1 -1,0 z 
            M 4,22 l 1,0 0,1 -1,0 z M 5,22 l 1,0 0,1 -1,0 z M 6,22 l 1,0 0,1 -1,0 z M 7,22 l 1,0 0,1 -1,0 z M 8,22 l 1,0 0,1 -1,0 z 
            M 10,22 l 1,0 0,1 -1,0 z M 14,22 l 1,0 0,1 -1,0 z M 17,22 l 1,0 0,1 -1,0 z M 21,22 l 1,0 0,1 -1,0 z M 22,22 l 1,0 0,1 -1,0 z 
            M 23,22 l 1,0 0,1 -1,0 z M 24,22 l 1,0 0,1 -1,0 z M 25,22 l 1,0 0,1 -1,0 z M 26,22 l 1,0 0,1 -1,0 z M 28,22 l 1,0 0,1 -1,0 z 
            M 30,22 l 1,0 0,1 -1,0 z M 31,22 l 1,0 0,1 -1,0 z M 32,22 l 1,0 0,1 -1,0 z M 34,22 l 1,0 0,1 -1,0 z M 35,22 l 1,0 0,1 -1,0 z 
            M 36,22 l 1,0 0,1 -1,0 z M 37,22 l 1,0 0,1 -1,0 z M 38,22 l 1,0 0,1 -1,0 z M 39,22 l 1,0 0,1 -1,0 z M 40,22 l 1,0 0,1 -1,0 z 
            M 41,22 l 1,0 0,1 -1,0 z M 42,22 l 1,0 0,1 -1,0 z M 43,22 l 1,0 0,1 -1,0 z M 44,22 l 1,0 0,1 -1,0 z M 46,22 l 1,0 0,1 -1,0 z 
            M 1,23 l 1,0 0,1 -1,0 z M 2,23 l 1,0 0,1 -1,0 z M 3,23 l 1,0 0,1 -1,0 z M 4,23 l 1,0 0,1 -1,0 z M 8,23 l 1,0 0,1 -1,0 z 
            M 9,23 l 1,0 0,1 -1,0 z M 10,23 l 1,0 0,1 -1,0 z M 11,23 l 1,0 0,1 -1,0 z M 13,23 l 1,0 0,1 -1,0 z M 15,23 l 1,0 0,1 -1,0 z 
            M 18,23 l 1,0 0,1 -1,0 z M 21,23 l 1,0 0,1 -1,0 z M 22,23 l 1,0 0,1 -1,0 z M 26,23 l 1,0 0,1 -1,0 z M 29,23 l 1,0 0,1 -1,0 z 
            M 30,23 l 1,0 0,1 -1,0 z M 31,23 l 1,0 0,1 -1,0 z M 32,23 l 1,0 0,1 -1,0 z M 40,23 l 1,0 0,1 -1,0 z M 44,23 l 1,0 0,1 -1,0 z 
            M 46,23 l 1,0 0,1 -1,0 z M 47,23 l 1,0 0,1 -1,0 z M 0,24 l 1,0 0,1 -1,0 z M 4,24 l 1,0 0,1 -1,0 z M 6,24 l 1,0 0,1 -1,0 z 
            M 8,24 l 1,0 0,1 -1,0 z M 9,24 l 1,0 0,1 -1,0 z M 11,24 l 1,0 0,1 -1,0 z M 12,24 l 1,0 0,1 -1,0 z M 19,24 l 1,0 0,1 -1,0 z 
            M 20,24 l 1,0 0,1 -1,0 z M 22,24 l 1,0 0,1 -1,0 z M 24,24 l 1,0 0,1 -1,0 z M 26,24 l 1,0 0,1 -1,0 z M 36,24 l 1,0 0,1 -1,0 z 
            M 40,24 l 1,0 0,1 -1,0 z M 42,24 l 1,0 0,1 -1,0 z M 44,24 l 1,0 0,1 -1,0 z M 45,24 l 1,0 0,1 -1,0 z M 46,24 l 1,0 0,1 -1,0 z 
            M 48,24 l 1,0 0,1 -1,0 z M 0,25 l 1,0 0,1 -1,0 z M 1,25 l 1,0 0,1 -1,0 z M 2,25 l 1,0 0,1 -1,0 z M 4,25 l 1,0 0,1 -1,0 z 
            M 8,25 l 1,0 0,1 -1,0 z M 10,25 l 1,0 0,1 -1,0 z M 11,25 l 1,0 0,1 -1,0 z M 17,25 l 1,0 0,1 -1,0 z M 18,25 l 1,0 0,1 -1,0 z 
            M 21,25 l 1,0 0,1 -1,0 z M 22,25 l 1,0 0,1 -1,0 z M 26,25 l 1,0 0,1 -1,0 z M 27,25 l 1,0 0,1 -1,0 z M 28,25 l 1,0 0,1 -1,0 z 
            M 31,25 l 1,0 0,1 -1,0 z M 35,25 l 1,0 0,1 -1,0 z M 36,25 l 1,0 0,1 -1,0 z M 37,25 l 1,0 0,1 -1,0 z M 38,25 l 1,0 0,1 -1,0 z 
            M 39,25 l 1,0 0,1 -1,0 z M 40,25 l 1,0 0,1 -1,0 z M 44,25 l 1,0 0,1 -1,0 z M 45,25 l 1,0 0,1 -1,0 z M 47,25 l 1,0 0,1 -1,0 z 
            M 48,25 l 1,0 0,1 -1,0 z M 0,26 l 1,0 0,1 -1,0 z M 4,26 l 1,0 0,1 -1,0 z M 5,26 l 1,0 0,1 -1,0 z M 6,26 l 1,0 0,1 -1,0 z 
            M 7,26 l 1,0 0,1 -1,0 z M 8,26 l 1,0 0,1 -1,0 z M 12,26 l 1,0 0,1 -1,0 z M 15,26 l 1,0 0,1 -1,0 z M 19,26 l 1,0 0,1 -1,0 z 
            M 22,26 l 1,0 0,1 -1,0 z M 23,26 l 1,0 0,1 -1,0 z M 24,26 l 1,0 0,1 -1,0 z M 25,26 l 1,0 0,1 -1,0 z M 26,26 l 1,0 0,1 -1,0 z 
            M 27,26 l 1,0 0,1 -1,0 z M 28,26 l 1,0 0,1 -1,0 z M 30,26 l 1,0 0,1 -1,0 z M 32,26 l 1,0 0,1 -1,0 z M 33,26 l 1,0 0,1 -1,0 z 
            M 34,26 l 1,0 0,1 -1,0 z M 35,26 l 1,0 0,1 -1,0 z M 36,26 l 1,0 0,1 -1,0 z M 37,26 l 1,0 0,1 -1,0 z M 38,26 l 1,0 0,1 -1,0 z 
            M 40,26 l 1,0 0,1 -1,0 z M 41,26 l 1,0 0,1 -1,0 z M 42,26 l 1,0 0,1 -1,0 z M 43,26 l 1,0 0,1 -1,0 z M 44,26 l 1,0 0,1 -1,0 z 
            M 45,26 l 1,0 0,1 -1,0 z M 2,27 l 1,0 0,1 -1,0 z M 3,27 l 1,0 0,1 -1,0 z M 4,27 l 1,0 0,1 -1,0 z M 5,27 l 1,0 0,1 -1,0 z 
            M 7,27 l 1,0 0,1 -1,0 z M 11,27 l 1,0 0,1 -1,0 z M 13,27 l 1,0 0,1 -1,0 z M 14,27 l 1,0 0,1 -1,0 z M 16,27 l 1,0 0,1 -1,0 z 
            M 18,27 l 1,0 0,1 -1,0 z M 19,27 l 1,0 0,1 -1,0 z M 21,27 l 1,0 0,1 -1,0 z M 22,27 l 1,0 0,1 -1,0 z M 23,27 l 1,0 0,1 -1,0 z 
            M 31,27 l 1,0 0,1 -1,0 z M 43,27 l 1,0 0,1 -1,0 z M 45,27 l 1,0 0,1 -1,0 z M 47,27 l 1,0 0,1 -1,0 z M 1,28 l 1,0 0,1 -1,0 z 
            M 2,28 l 1,0 0,1 -1,0 z M 6,28 l 1,0 0,1 -1,0 z M 10,28 l 1,0 0,1 -1,0 z M 11,28 l 1,0 0,1 -1,0 z M 16,28 l 1,0 0,1 -1,0 z 
            M 17,28 l 1,0 0,1 -1,0 z M 18,28 l 1,0 0,1 -1,0 z M 20,28 l 1,0 0,1 -1,0 z M 22,28 l 1,0 0,1 -1,0 z M 23,28 l 1,0 0,1 -1,0 z 
            M 24,28 l 1,0 0,1 -1,0 z M 26,28 l 1,0 0,1 -1,0 z M 28,28 l 1,0 0,1 -1,0 z M 30,28 l 1,0 0,1 -1,0 z M 32,28 l 1,0 0,1 -1,0 z 
            M 35,28 l 1,0 0,1 -1,0 z M 37,28 l 1,0 0,1 -1,0 z M 38,28 l 1,0 0,1 -1,0 z M 39,28 l 1,0 0,1 -1,0 z M 40,28 l 1,0 0,1 -1,0 z 
            M 41,28 l 1,0 0,1 -1,0 z M 42,28 l 1,0 0,1 -1,0 z M 43,28 l 1,0 0,1 -1,0 z M 46,28 l 1,0 0,1 -1,0 z M 48,28 l 1,0 0,1 -1,0 z 
            M 0,29 l 1,0 0,1 -1,0 z M 3,29 l 1,0 0,1 -1,0 z M 7,29 l 1,0 0,1 -1,0 z M 8,29 l 1,0 0,1 -1,0 z M 10,29 l 1,0 0,1 -1,0 z 
            M 13,29 l 1,0 0,1 -1,0 z M 14,29 l 1,0 0,1 -1,0 z M 18,29 l 1,0 0,1 -1,0 z M 19,29 l 1,0 0,1 -1,0 z M 24,29 l 1,0 0,1 -1,0 z 
            M 26,29 l 1,0 0,1 -1,0 z M 28,29 l 1,0 0,1 -1,0 z M 29,29 l 1,0 0,1 -1,0 z M 32,29 l 1,0 0,1 -1,0 z M 35,29 l 1,0 0,1 -1,0 z 
            M 37,29 l 1,0 0,1 -1,0 z M 39,29 l 1,0 0,1 -1,0 z M 41,29 l 1,0 0,1 -1,0 z M 43,29 l 1,0 0,1 -1,0 z M 45,29 l 1,0 0,1 -1,0 z 
            M 47,29 l 1,0 0,1 -1,0 z M 0,30 l 1,0 0,1 -1,0 z M 1,30 l 1,0 0,1 -1,0 z M 2,30 l 1,0 0,1 -1,0 z M 4,30 l 1,0 0,1 -1,0 z 
            M 5,30 l 1,0 0,1 -1,0 z M 6,30 l 1,0 0,1 -1,0 z M 10,30 l 1,0 0,1 -1,0 z M 11,30 l 1,0 0,1 -1,0 z M 12,30 l 1,0 0,1 -1,0 z 
            M 13,30 l 1,0 0,1 -1,0 z M 16,30 l 1,0 0,1 -1,0 z M 17,30 l 1,0 0,1 -1,0 z M 18,30 l 1,0 0,1 -1,0 z M 20,30 l 1,0 0,1 -1,0 z 
            M 24,30 l 1,0 0,1 -1,0 z M 26,30 l 1,0 0,1 -1,0 z M 28,30 l 1,0 0,1 -1,0 z M 29,30 l 1,0 0,1 -1,0 z M 32,30 l 1,0 0,1 -1,0 z 
            M 34,30 l 1,0 0,1 -1,0 z M 36,30 l 1,0 0,1 -1,0 z M 41,30 l 1,0 0,1 -1,0 z M 42,30 l 1,0 0,1 -1,0 z M 44,30 l 1,0 0,1 -1,0 z 
            M 46,30 l 1,0 0,1 -1,0 z M 47,30 l 1,0 0,1 -1,0 z M 48,30 l 1,0 0,1 -1,0 z M 1,31 l 1,0 0,1 -1,0 z M 2,31 l 1,0 0,1 -1,0 z 
            M 3,31 l 1,0 0,1 -1,0 z M 4,31 l 1,0 0,1 -1,0 z M 7,31 l 1,0 0,1 -1,0 z M 8,31 l 1,0 0,1 -1,0 z M 9,31 l 1,0 0,1 -1,0 z 
            M 10,31 l 1,0 0,1 -1,0 z M 12,31 l 1,0 0,1 -1,0 z M 14,31 l 1,0 0,1 -1,0 z M 15,31 l 1,0 0,1 -1,0 z M 19,31 l 1,0 0,1 -1,0 z 
            M 21,31 l 1,0 0,1 -1,0 z M 22,31 l 1,0 0,1 -1,0 z M 23,31 l 1,0 0,1 -1,0 z M 25,31 l 1,0 0,1 -1,0 z M 27,31 l 1,0 0,1 -1,0 z 
            M 28,31 l 1,0 0,1 -1,0 z M 33,31 l 1,0 0,1 -1,0 z M 37,31 l 1,0 0,1 -1,0 z M 39,31 l 1,0 0,1 -1,0 z M 40,31 l 1,0 0,1 -1,0 z 
            M 41,31 l 1,0 0,1 -1,0 z M 42,31 l 1,0 0,1 -1,0 z M 46,31 l 1,0 0,1 -1,0 z M 47,31 l 1,0 0,1 -1,0 z M 48,31 l 1,0 0,1 -1,0 z 
            M 1,32 l 1,0 0,1 -1,0 z M 2,32 l 1,0 0,1 -1,0 z M 4,32 l 1,0 0,1 -1,0 z M 5,32 l 1,0 0,1 -1,0 z M 6,32 l 1,0 0,1 -1,0 z 
            M 8,32 l 1,0 0,1 -1,0 z M 9,32 l 1,0 0,1 -1,0 z M 10,32 l 1,0 0,1 -1,0 z M 12,32 l 1,0 0,1 -1,0 z M 13,32 l 1,0 0,1 -1,0 z 
            M 15,32 l 1,0 0,1 -1,0 z M 16,32 l 1,0 0,1 -1,0 z M 18,32 l 1,0 0,1 -1,0 z M 19,32 l 1,0 0,1 -1,0 z M 20,32 l 1,0 0,1 -1,0 z 
            M 25,32 l 1,0 0,1 -1,0 z M 26,32 l 1,0 0,1 -1,0 z M 27,32 l 1,0 0,1 -1,0 z M 30,32 l 1,0 0,1 -1,0 z M 31,32 l 1,0 0,1 -1,0 z 
            M 34,32 l 1,0 0,1 -1,0 z M 35,32 l 1,0 0,1 -1,0 z M 38,32 l 1,0 0,1 -1,0 z M 42,32 l 1,0 0,1 -1,0 z M 45,32 l 1,0 0,1 -1,0 z 
            M 46,32 l 1,0 0,1 -1,0 z M 0,33 l 1,0 0,1 -1,0 z M 1,33 l 1,0 0,1 -1,0 z M 3,33 l 1,0 0,1 -1,0 z M 5,33 l 1,0 0,1 -1,0 z 
            M 7,33 l 1,0 0,1 -1,0 z M 8,33 l 1,0 0,1 -1,0 z M 12,33 l 1,0 0,1 -1,0 z M 14,33 l 1,0 0,1 -1,0 z M 15,33 l 1,0 0,1 -1,0 z 
            M 18,33 l 1,0 0,1 -1,0 z M 20,33 l 1,0 0,1 -1,0 z M 21,33 l 1,0 0,1 -1,0 z M 22,33 l 1,0 0,1 -1,0 z M 23,33 l 1,0 0,1 -1,0 z 
            M 24,33 l 1,0 0,1 -1,0 z M 26,33 l 1,0 0,1 -1,0 z M 27,33 l 1,0 0,1 -1,0 z M 30,33 l 1,0 0,1 -1,0 z M 31,33 l 1,0 0,1 -1,0 z 
            M 34,33 l 1,0 0,1 -1,0 z M 35,33 l 1,0 0,1 -1,0 z M 38,33 l 1,0 0,1 -1,0 z M 42,33 l 1,0 0,1 -1,0 z M 43,33 l 1,0 0,1 -1,0 z 
            M 44,33 l 1,0 0,1 -1,0 z M 47,33 l 1,0 0,1 -1,0 z M 48,33 l 1,0 0,1 -1,0 z M 0,34 l 1,0 0,1 -1,0 z M 2,34 l 1,0 0,1 -1,0 z 
            M 6,34 l 1,0 0,1 -1,0 z M 7,34 l 1,0 0,1 -1,0 z M 16,34 l 1,0 0,1 -1,0 z M 18,34 l 1,0 0,1 -1,0 z M 20,34 l 1,0 0,1 -1,0 z 
            M 22,34 l 1,0 0,1 -1,0 z M 24,34 l 1,0 0,1 -1,0 z M 26,34 l 1,0 0,1 -1,0 z M 27,34 l 1,0 0,1 -1,0 z M 28,34 l 1,0 0,1 -1,0 z 
            M 32,34 l 1,0 0,1 -1,0 z M 33,34 l 1,0 0,1 -1,0 z M 34,34 l 1,0 0,1 -1,0 z M 36,34 l 1,0 0,1 -1,0 z M 37,34 l 1,0 0,1 -1,0 z 
            M 38,34 l 1,0 0,1 -1,0 z M 42,34 l 1,0 0,1 -1,0 z M 44,34 l 1,0 0,1 -1,0 z M 45,34 l 1,0 0,1 -1,0 z M 46,34 l 1,0 0,1 -1,0 z 
            M 0,35 l 1,0 0,1 -1,0 z M 3,35 l 1,0 0,1 -1,0 z M 5,35 l 1,0 0,1 -1,0 z M 7,35 l 1,0 0,1 -1,0 z M 8,35 l 1,0 0,1 -1,0 z 
            M 9,35 l 1,0 0,1 -1,0 z M 10,35 l 1,0 0,1 -1,0 z M 12,35 l 1,0 0,1 -1,0 z M 13,35 l 1,0 0,1 -1,0 z M 14,35 l 1,0 0,1 -1,0 z 
            M 15,35 l 1,0 0,1 -1,0 z M 16,35 l 1,0 0,1 -1,0 z M 17,35 l 1,0 0,1 -1,0 z M 19,35 l 1,0 0,1 -1,0 z M 21,35 l 1,0 0,1 -1,0 z 
            M 23,35 l 1,0 0,1 -1,0 z M 25,35 l 1,0 0,1 -1,0 z M 26,35 l 1,0 0,1 -1,0 z M 29,35 l 1,0 0,1 -1,0 z M 31,35 l 1,0 0,1 -1,0 z 
            M 32,35 l 1,0 0,1 -1,0 z M 33,35 l 1,0 0,1 -1,0 z M 36,35 l 1,0 0,1 -1,0 z M 37,35 l 1,0 0,1 -1,0 z M 39,35 l 1,0 0,1 -1,0 z 
            M 41,35 l 1,0 0,1 -1,0 z M 43,35 l 1,0 0,1 -1,0 z M 45,35 l 1,0 0,1 -1,0 z M 47,35 l 1,0 0,1 -1,0 z M 1,36 l 1,0 0,1 -1,0 z 
            M 2,36 l 1,0 0,1 -1,0 z M 3,36 l 1,0 0,1 -1,0 z M 6,36 l 1,0 0,1 -1,0 z M 8,36 l 1,0 0,1 -1,0 z M 11,36 l 1,0 0,1 -1,0 z 
            M 13,36 l 1,0 0,1 -1,0 z M 15,36 l 1,0 0,1 -1,0 z M 17,36 l 1,0 0,1 -1,0 z M 19,36 l 1,0 0,1 -1,0 z M 21,36 l 1,0 0,1 -1,0 z 
            M 22,36 l 1,0 0,1 -1,0 z M 23,36 l 1,0 0,1 -1,0 z M 26,36 l 1,0 0,1 -1,0 z M 27,36 l 1,0 0,1 -1,0 z M 29,36 l 1,0 0,1 -1,0 z 
            M 32,36 l 1,0 0,1 -1,0 z M 33,36 l 1,0 0,1 -1,0 z M 35,36 l 1,0 0,1 -1,0 z M 36,36 l 1,0 0,1 -1,0 z M 38,36 l 1,0 0,1 -1,0 z 
            M 40,36 l 1,0 0,1 -1,0 z M 41,36 l 1,0 0,1 -1,0 z M 42,36 l 1,0 0,1 -1,0 z M 43,36 l 1,0 0,1 -1,0 z M 44,36 l 1,0 0,1 -1,0 z 
            M 46,36 l 1,0 0,1 -1,0 z M 48,36 l 1,0 0,1 -1,0 z M 2,37 l 1,0 0,1 -1,0 z M 4,37 l 1,0 0,1 -1,0 z M 5,37 l 1,0 0,1 -1,0 z 
            M 7,37 l 1,0 0,1 -1,0 z M 8,37 l 1,0 0,1 -1,0 z M 10,37 l 1,0 0,1 -1,0 z M 11,37 l 1,0 0,1 -1,0 z M 13,37 l 1,0 0,1 -1,0 z 
            M 14,37 l 1,0 0,1 -1,0 z M 17,37 l 1,0 0,1 -1,0 z M 19,37 l 1,0 0,1 -1,0 z M 21,37 l 1,0 0,1 -1,0 z M 22,37 l 1,0 0,1 -1,0 z 
            M 23,37 l 1,0 0,1 -1,0 z M 25,37 l 1,0 0,1 -1,0 z M 27,37 l 1,0 0,1 -1,0 z M 29,37 l 1,0 0,1 -1,0 z M 32,37 l 1,0 0,1 -1,0 z 
            M 33,37 l 1,0 0,1 -1,0 z M 34,37 l 1,0 0,1 -1,0 z M 35,37 l 1,0 0,1 -1,0 z M 36,37 l 1,0 0,1 -1,0 z M 37,37 l 1,0 0,1 -1,0 z 
            M 38,37 l 1,0 0,1 -1,0 z M 40,37 l 1,0 0,1 -1,0 z M 42,37 l 1,0 0,1 -1,0 z M 44,37 l 1,0 0,1 -1,0 z M 45,37 l 1,0 0,1 -1,0 z 
            M 1,38 l 1,0 0,1 -1,0 z M 5,38 l 1,0 0,1 -1,0 z M 6,38 l 1,0 0,1 -1,0 z M 7,38 l 1,0 0,1 -1,0 z M 8,38 l 1,0 0,1 -1,0 z 
            M 16,38 l 1,0 0,1 -1,0 z M 17,38 l 1,0 0,1 -1,0 z M 19,38 l 1,0 0,1 -1,0 z M 22,38 l 1,0 0,1 -1,0 z M 23,38 l 1,0 0,1 -1,0 z 
            M 25,38 l 1,0 0,1 -1,0 z M 28,38 l 1,0 0,1 -1,0 z M 30,38 l 1,0 0,1 -1,0 z M 31,38 l 1,0 0,1 -1,0 z M 32,38 l 1,0 0,1 -1,0 z 
            M 33,38 l 1,0 0,1 -1,0 z M 34,38 l 1,0 0,1 -1,0 z M 35,38 l 1,0 0,1 -1,0 z M 36,38 l 1,0 0,1 -1,0 z M 40,38 l 1,0 0,1 -1,0 z 
            M 42,38 l 1,0 0,1 -1,0 z M 44,38 l 1,0 0,1 -1,0 z M 46,38 l 1,0 0,1 -1,0 z M 47,38 l 1,0 0,1 -1,0 z M 1,39 l 1,0 0,1 -1,0 z 
            M 2,39 l 1,0 0,1 -1,0 z M 3,39 l 1,0 0,1 -1,0 z M 7,39 l 1,0 0,1 -1,0 z M 8,39 l 1,0 0,1 -1,0 z M 11,39 l 1,0 0,1 -1,0 z 
            M 12,39 l 1,0 0,1 -1,0 z M 13,39 l 1,0 0,1 -1,0 z M 15,39 l 1,0 0,1 -1,0 z M 16,39 l 1,0 0,1 -1,0 z M 17,39 l 1,0 0,1 -1,0 z 
            M 18,39 l 1,0 0,1 -1,0 z M 21,39 l 1,0 0,1 -1,0 z M 27,39 l 1,0 0,1 -1,0 z M 35,39 l 1,0 0,1 -1,0 z M 36,39 l 1,0 0,1 -1,0 z 
            M 37,39 l 1,0 0,1 -1,0 z M 41,39 l 1,0 0,1 -1,0 z M 42,39 l 1,0 0,1 -1,0 z M 45,39 l 1,0 0,1 -1,0 z M 46,39 l 1,0 0,1 -1,0 z 
            M 47,39 l 1,0 0,1 -1,0 z M 0,40 l 1,0 0,1 -1,0 z M 1,40 l 1,0 0,1 -1,0 z M 2,40 l 1,0 0,1 -1,0 z M 6,40 l 1,0 0,1 -1,0 z 
            M 7,40 l 1,0 0,1 -1,0 z M 9,40 l 1,0 0,1 -1,0 z M 10,40 l 1,0 0,1 -1,0 z M 12,40 l 1,0 0,1 -1,0 z M 15,40 l 1,0 0,1 -1,0 z 
            M 17,40 l 1,0 0,1 -1,0 z M 18,40 l 1,0 0,1 -1,0 z M 20,40 l 1,0 0,1 -1,0 z M 21,40 l 1,0 0,1 -1,0 z M 22,40 l 1,0 0,1 -1,0 z 
            M 23,40 l 1,0 0,1 -1,0 z M 24,40 l 1,0 0,1 -1,0 z M 25,40 l 1,0 0,1 -1,0 z M 26,40 l 1,0 0,1 -1,0 z M 27,40 l 1,0 0,1 -1,0 z 
            M 31,40 l 1,0 0,1 -1,0 z M 36,40 l 1,0 0,1 -1,0 z M 40,40 l 1,0 0,1 -1,0 z M 41,40 l 1,0 0,1 -1,0 z M 42,40 l 1,0 0,1 -1,0 z 
            M 43,40 l 1,0 0,1 -1,0 z M 44,40 l 1,0 0,1 -1,0 z M 48,40 l 1,0 0,1 -1,0 z M 8,41 l 1,0 0,1 -1,0 z M 9,41 l 1,0 0,1 -1,0 z 
            M 11,41 l 1,0 0,1 -1,0 z M 12,41 l 1,0 0,1 -1,0 z M 13,41 l 1,0 0,1 -1,0 z M 18,41 l 1,0 0,1 -1,0 z M 19,41 l 1,0 0,1 -1,0 z 
            M 20,41 l 1,0 0,1 -1,0 z M 22,41 l 1,0 0,1 -1,0 z M 26,41 l 1,0 0,1 -1,0 z M 27,41 l 1,0 0,1 -1,0 z M 28,41 l 1,0 0,1 -1,0 z 
            M 30,41 l 1,0 0,1 -1,0 z M 31,41 l 1,0 0,1 -1,0 z M 37,41 l 1,0 0,1 -1,0 z M 40,41 l 1,0 0,1 -1,0 z M 44,41 l 1,0 0,1 -1,0 z 
            M 45,41 l 1,0 0,1 -1,0 z M 0,42 l 1,0 0,1 -1,0 z M 1,42 l 1,0 0,1 -1,0 z M 2,42 l 1,0 0,1 -1,0 z M 3,42 l 1,0 0,1 -1,0 z 
            M 4,42 l 1,0 0,1 -1,0 z M 5,42 l 1,0 0,1 -1,0 z M 6,42 l 1,0 0,1 -1,0 z M 10,42 l 1,0 0,1 -1,0 z M 12,42 l 1,0 0,1 -1,0 z 
            M 14,42 l 1,0 0,1 -1,0 z M 15,42 l 1,0 0,1 -1,0 z M 16,42 l 1,0 0,1 -1,0 z M 19,42 l 1,0 0,1 -1,0 z M 21,42 l 1,0 0,1 -1,0 z 
            M 22,42 l 1,0 0,1 -1,0 z M 24,42 l 1,0 0,1 -1,0 z M 26,42 l 1,0 0,1 -1,0 z M 27,42 l 1,0 0,1 -1,0 z M 28,42 l 1,0 0,1 -1,0 z 
            M 30,42 l 1,0 0,1 -1,0 z M 32,42 l 1,0 0,1 -1,0 z M 34,42 l 1,0 0,1 -1,0 z M 35,42 l 1,0 0,1 -1,0 z M 36,42 l 1,0 0,1 -1,0 z 
            M 38,42 l 1,0 0,1 -1,0 z M 39,42 l 1,0 0,1 -1,0 z M 40,42 l 1,0 0,1 -1,0 z M 42,42 l 1,0 0,1 -1,0 z M 44,42 l 1,0 0,1 -1,0 z 
            M 46,42 l 1,0 0,1 -1,0 z M 47,42 l 1,0 0,1 -1,0 z M 0,43 l 1,0 0,1 -1,0 z M 6,43 l 1,0 0,1 -1,0 z M 9,43 l 1,0 0,1 -1,0 z 
            M 10,43 l 1,0 0,1 -1,0 z M 14,43 l 1,0 0,1 -1,0 z M 16,43 l 1,0 0,1 -1,0 z M 17,43 l 1,0 0,1 -1,0 z M 18,43 l 1,0 0,1 -1,0 z 
            M 19,43 l 1,0 0,1 -1,0 z M 21,43 l 1,0 0,1 -1,0 z M 22,43 l 1,0 0,1 -1,0 z M 26,43 l 1,0 0,1 -1,0 z M 39,43 l 1,0 0,1 -1,0 z 
            M 40,43 l 1,0 0,1 -1,0 z M 44,43 l 1,0 0,1 -1,0 z M 46,43 l 1,0 0,1 -1,0 z M 47,43 l 1,0 0,1 -1,0 z M 0,44 l 1,0 0,1 -1,0 z 
            M 2,44 l 1,0 0,1 -1,0 z M 3,44 l 1,0 0,1 -1,0 z M 4,44 l 1,0 0,1 -1,0 z M 6,44 l 1,0 0,1 -1,0 z M 8,44 l 1,0 0,1 -1,0 z 
            M 9,44 l 1,0 0,1 -1,0 z M 16,44 l 1,0 0,1 -1,0 z M 20,44 l 1,0 0,1 -1,0 z M 22,44 l 1,0 0,1 -1,0 z M 23,44 l 1,0 0,1 -1,0 z 
            M 24,44 l 1,0 0,1 -1,0 z M 25,44 l 1,0 0,1 -1,0 z M 26,44 l 1,0 0,1 -1,0 z M 28,44 l 1,0 0,1 -1,0 z M 30,44 l 1,0 0,1 -1,0 z 
            M 31,44 l 1,0 0,1 -1,0 z M 32,44 l 1,0 0,1 -1,0 z M 36,44 l 1,0 0,1 -1,0 z M 40,44 l 1,0 0,1 -1,0 z M 41,44 l 1,0 0,1 -1,0 z 
            M 42,44 l 1,0 0,1 -1,0 z M 43,44 l 1,0 0,1 -1,0 z M 44,44 l 1,0 0,1 -1,0 z M 45,44 l 1,0 0,1 -1,0 z M 46,44 l 1,0 0,1 -1,0 z 
            M 48,44 l 1,0 0,1 -1,0 z M 0,45 l 1,0 0,1 -1,0 z M 2,45 l 1,0 0,1 -1,0 z M 3,45 l 1,0 0,1 -1,0 z M 4,45 l 1,0 0,1 -1,0 z 
            M 6,45 l 1,0 0,1 -1,0 z M 9,45 l 1,0 0,1 -1,0 z M 11,45 l 1,0 0,1 -1,0 z M 14,45 l 1,0 0,1 -1,0 z M 18,45 l 1,0 0,1 -1,0 z 
            M 22,45 l 1,0 0,1 -1,0 z M 25,45 l 1,0 0,1 -1,0 z M 28,45 l 1,0 0,1 -1,0 z M 29,45 l 1,0 0,1 -1,0 z M 30,45 l 1,0 0,1 -1,0 z 
            M 32,45 l 1,0 0,1 -1,0 z M 34,45 l 1,0 0,1 -1,0 z M 36,45 l 1,0 0,1 -1,0 z M 41,45 l 1,0 0,1 -1,0 z M 44,45 l 1,0 0,1 -1,0 z 
            M 45,45 l 1,0 0,1 -1,0 z M 0,46 l 1,0 0,1 -1,0 z M 2,46 l 1,0 0,1 -1,0 z M 3,46 l 1,0 0,1 -1,0 z M 4,46 l 1,0 0,1 -1,0 z 
            M 6,46 l 1,0 0,1 -1,0 z M 8,46 l 1,0 0,1 -1,0 z M 10,46 l 1,0 0,1 -1,0 z M 11,46 l 1,0 0,1 -1,0 z M 12,46 l 1,0 0,1 -1,0 z 
            M 13,46 l 1,0 0,1 -1,0 z M 15,46 l 1,0 0,1 -1,0 z M 20,46 l 1,0 0,1 -1,0 z M 22,46 l 1,0 0,1 -1,0 z M 23,46 l 1,0 0,1 -1,0 z 
            M 24,46 l 1,0 0,1 -1,0 z M 26,46 l 1,0 0,1 -1,0 z M 28,46 l 1,0 0,1 -1,0 z M 30,46 l 1,0 0,1 -1,0 z M 32,46 l 1,0 0,1 -1,0 z 
            M 33,46 l 1,0 0,1 -1,0 z M 36,46 l 1,0 0,1 -1,0 z M 37,46 l 1,0 0,1 -1,0 z M 38,46 l 1,0 0,1 -1,0 z M 39,46 l 1,0 0,1 -1,0 z 
            M 41,46 l 1,0 0,1 -1,0 z M 44,46 l 1,0 0,1 -1,0 z M 46,46 l 1,0 0,1 -1,0 z M 48,46 l 1,0 0,1 -1,0 z M 0,47 l 1,0 0,1 -1,0 z 
            M 6,47 l 1,0 0,1 -1,0 z M 10,47 l 1,0 0,1 -1,0 z M 12,47 l 1,0 0,1 -1,0 z M 15,47 l 1,0 0,1 -1,0 z M 16,47 l 1,0 0,1 -1,0 z 
            M 17,47 l 1,0 0,1 -1,0 z M 18,47 l 1,0 0,1 -1,0 z M 21,47 l 1,0 0,1 -1,0 z M 24,47 l 1,0 0,1 -1,0 z M 25,47 l 1,0 0,1 -1,0 z 
            M 26,47 l 1,0 0,1 -1,0 z M 28,47 l 1,0 0,1 -1,0 z M 31,47 l 1,0 0,1 -1,0 z M 32,47 l 1,0 0,1 -1,0 z M 33,47 l 1,0 0,1 -1,0 z 
            M 35,47 l 1,0 0,1 -1,0 z M 36,47 l 1,0 0,1 -1,0 z M 37,47 l 1,0 0,1 -1,0 z M 39,47 l 1,0 0,1 -1,0 z M 41,47 l 1,0 0,1 -1,0 z 
            M 43,47 l 1,0 0,1 -1,0 z M 45,47 l 1,0 0,1 -1,0 z M 46,47 l 1,0 0,1 -1,0 z M 48,47 l 1,0 0,1 -1,0 z M 0,48 l 1,0 0,1 -1,0 z 
            M 1,48 l 1,0 0,1 -1,0 z M 2,48 l 1,0 0,1 -1,0 z M 3,48 l 1,0 0,1 -1,0 z M 4,48 l 1,0 0,1 -1,0 z M 5,48 l 1,0 0,1 -1,0 z 
            M 6,48 l 1,0 0,1 -1,0 z M 8,48 l 1,0 0,1 -1,0 z M 9,48 l 1,0 0,1 -1,0 z M 11,48 l 1,0 0,1 -1,0 z M 13,48 l 1,0 0,1 -1,0 z 
            M 15,48 l 1,0 0,1 -1,0 z M 16,48 l 1,0 0,1 -1,0 z M 18,48 l 1,0 0,1 -1,0 z M 24,48 l 1,0 0,1 -1,0 z M 27,48 l 1,0 0,1 -1,0 z 
            M 30,48 l 1,0 0,1 -1,0 z M 34,48 l 1,0 0,1 -1,0 z M 38,48 l 1,0 0,1 -1,0 z M 40,48 l 1,0 0,1 -1,0 z M 42,48 l 1,0 0,1 -1,0 z 
            M 43,48 l 1,0 0,1 -1,0 z M 44,48 l 1,0 0,1 -1,0 z M 47,48 l 1,0 0,1 -1,0 z M 48,48 l 1,0 0,1 -1,0 z "/>
      </g>
   </svg>

   <svg x="42.39135%" y="42.39135%" width="15.2173%" height="15.2173%" 
      viewBox="0 0 19.8 19.8" style="enable-background:new 0 0 19.8 19.8;" xml:space="preserve">
      <style type="text/css">
         .st0{fill:#FFFFFF;}
         .st1{fill:none;stroke:#FFFFFF;stroke-width:1.4357;stroke-miterlimit:10;}
      </style>
      <polygon points="18.3,0.7 1.6,0.7 0.7,0.7 0.7,1.6 0.7,18.3 0.7,19.1 1.6,19.1 18.3,19.1 19.1,19.1 19.1,18.3 19.1,1.6 19.1,0.7 "/>
      <rect x="8.3" y="4" class="st0" width="3.3" height="11"/>
      <rect x="4.4" y="7.9" class="st0" width="11" height="3.3"/>
      <polygon class="st1" points="0.7,1.6 0.7,18.3 0.7,19.1 1.6,19.1 18.3,19.1 19.1,19.1 19.1,18.3 19.1,1.6 19.1,0.7 18.3,0.7 1.6,0.7 0.7,0.7 "/>
   </svg>
</svg>